# Blender 4.1.0
# www.blender.org
g FlowerMesh_FlowerMesh
v -0.036747 0.000000 0.036747
v -0.036747 0.500000 0.036747
v -0.036747 -0.000000 -0.036747
v -0.036747 0.500000 -0.036747
v 0.036747 0.000000 0.036747
v 0.036747 0.500000 0.036747
v 0.036747 -0.000000 -0.036747
v 0.036747 0.500000 -0.036747
v 0.000000 1.583990 -0.300000
v -0.212132 1.583990 -0.212132
v -0.300000 1.583990 -0.000000
v -0.212132 1.583990 0.212132
v 0.000000 1.583990 0.300000
v 0.212132 1.583990 0.212132
v 0.300000 1.583990 -0.000000
v 0.212132 1.583990 -0.212132
v 0.568368 1.717590 -0.076368
v 0.347897 1.717590 0.455897
v 0.076368 1.717590 0.568368
v -0.455897 1.717590 0.347897
v -0.568368 1.717590 -0.076368
v -0.455897 1.717590 -0.347897
v -0.076368 1.717590 -0.568368
v 0.455897 1.717590 -0.347897
v -0.347897 1.717590 -0.455897
v 0.076368 1.717590 -0.568368
v 0.347897 1.717590 -0.455897
v 0.568368 1.717590 0.076368
v 0.455897 1.717590 0.347897
v -0.076368 1.717590 0.568368
v -0.347897 1.717590 0.455897
v -0.568368 1.717590 0.076368
v -0.084853 1.516013 -0.084853
v 0.000000 1.516013 -0.120000
v -0.120000 1.516013 -0.000000
v -0.084853 1.516013 0.084853
v 0.000000 1.516013 0.120000
v 0.084853 1.516013 0.084853
v 0.120000 1.516013 -0.000000
v 0.084853 1.516013 -0.084853
v 0.000000 1.500000 -0.000000
v -0.077322 1.655424 -0.186671
v -0.186671 1.655424 -0.077322
v -0.186671 1.655424 0.077322
v -0.077322 1.655424 0.186671
v 0.077322 1.655424 0.186671
v 0.186671 1.655424 0.077322
v 0.186671 1.655424 -0.077322
v 0.077322 1.655424 -0.186671
v 0.333977 1.853135 -0.194009
v 0.333977 1.853135 0.194009
v 0.194009 1.853135 0.333976
v -0.194009 1.853135 0.333976
v -0.373343 1.853135 0.098972
v -0.373343 1.853135 -0.098972
v -0.194009 1.853135 -0.333977
v 0.194009 1.853135 -0.333977
v -0.333977 1.853135 -0.194009
v -0.098972 1.853135 -0.373343
v 0.098972 1.853135 -0.373343
v 0.373343 1.853135 -0.098972
v 0.373343 1.853135 0.098972
v 0.098972 1.853135 0.373342
v -0.098972 1.853135 0.373342
v -0.333977 1.853135 0.194009
v -0.074669 1.554826 -0.030929
v -0.030928 1.554826 -0.074669
v -0.074669 1.554826 0.030928
v -0.030928 1.554826 0.074668
v 0.030928 1.554826 0.074668
v 0.074669 1.554826 0.030928
v 0.074669 1.554826 -0.030929
v 0.030928 1.554826 -0.074669
v -0.000000 1.531130 -0.000000
v 0.036747 1.250000 -0.036747
v -0.036747 1.250000 -0.036747
v 0.036747 1.250000 0.036747
v -0.036747 1.250000 0.036747
v -0.036747 1.500000 0.036747
v -0.036747 1.500000 -0.036747
v 0.036747 1.500000 0.036747
v 0.036747 1.500000 -0.036747
v 0.036747 1.000000 -0.036747
v 0.036747 1.000000 0.036747
v -0.036747 1.000000 -0.036747
v -0.036747 1.000000 0.036747
v 0.036747 0.750000 -0.036747
v 0.036747 0.750000 0.036747
v -0.036747 0.750000 -0.036747
v -0.036747 0.750000 0.036747
v 0.036747 0.250000 -0.036747
v 0.036747 0.250000 0.036747
v -0.036747 0.250000 0.036747
v -0.036747 0.250000 -0.036747
vn 0.7071 -0.0000 -0.7071
vn -0.7071 -0.0000 -0.7071
vn -0.7071 -0.0000 0.7071
vn 0.3845 0.9231 -0.0000
vn 0.2707 0.9627 -0.0000
vn 0.1914 0.9627 0.1914
vn 0.2719 0.9231 0.2719
vn -0.0000 0.9231 -0.3845
vn -0.0000 0.9627 -0.2707
vn 0.1914 0.9627 -0.1914
vn 0.2719 0.9231 -0.2719
vn -0.3845 0.9231 -0.0000
vn -0.2707 0.9627 -0.0000
vn -0.1914 0.9627 -0.1914
vn -0.2719 0.9231 -0.2719
vn -0.0000 0.9231 0.3845
vn -0.0000 0.9627 0.2707
vn -0.1914 0.9627 0.1914
vn -0.2719 0.9231 0.2719
vn 0.4012 0.9008 0.1662
vn -0.4012 0.9008 0.1662
vn -0.1662 0.9008 -0.4012
vn 0.4012 0.9008 -0.1662
vn 0.1662 0.9008 0.4012
vn -0.1662 0.9008 0.4012
vn -0.4012 0.9008 -0.1662
vn 0.1662 0.9008 -0.4012
vn -0.0000 1.0000 -0.0000
vn 0.6221 0.7393 -0.2577
vn 0.4684 0.8619 -0.1940
vn 0.4684 0.8619 0.1940
vn 0.6221 0.7393 0.2577
vn -0.2577 0.7393 -0.6221
vn -0.1940 0.8619 -0.4684
vn 0.1940 0.8619 -0.4684
vn 0.2577 0.7393 -0.6221
vn -0.6221 0.7393 0.2577
vn -0.4684 0.8619 0.1940
vn -0.4684 0.8619 -0.1940
vn -0.6221 0.7393 -0.2577
vn 0.2577 0.7393 0.6221
vn 0.1940 0.8619 0.4684
vn -0.1940 0.8619 0.4684
vn -0.2577 0.7393 0.6221
vn 0.7271 0.6865 -0.0000
vn -0.5141 0.6865 0.5141
vn -0.5141 0.6865 -0.5141
vn 0.5141 0.6865 -0.5141
vn 0.5141 0.6865 0.5141
vn -0.0000 0.6865 0.7271
vn -0.7271 0.6865 -0.0000
vn -0.0000 0.6865 -0.7271
vn 0.7071 -0.0000 0.7071
vt 0.000000 0.674533
vt 0.000000 0.809439
vt 0.000000 0.404720
vt 0.000000 0.539626
vt 0.500000 0.854762
vt 0.500000 0.818080
vt 0.500000 0.926856
vt 0.500000 0.926856
vt 0.500000 0.809439
vt 0.500000 0.893310
vt 0.500000 0.839025
vt 0.500000 1.000000
vt 0.500000 0.826238
vt 0.000000 0.134907
vt 0.000000 0.000000
vt 0.000000 0.269813
s 1
f 75/1/1 76/1/2 80/2/2 82/2/1
f 87/3/1 89/3/2 85/4/2 83/4/1
f 89/3/2 90/3/3 86/4/3 85/4/2
f 76/1/2 78/1/3 79/2/3 80/2/2
f 11/5/4 35/6/5 33/6/6 10/5/7
f 13/5/8 37/6/9 36/6/10 12/5/11
f 15/5/12 39/6/13 38/6/14 14/5/15
f 9/5/16 34/6/17 40/6/18 16/5/19
f 10/5/7 33/6/6 34/6/17 9/5/16
f 12/5/11 36/6/10 35/6/5 11/5/4
f 14/5/15 38/6/14 37/6/9 13/5/8
f 16/5/19 40/6/18 39/6/13 15/5/12
f 10/5/7 22/7/20 21/7/20 11/5/4
f 15/5/12 17/7/21 24/7/21 16/5/19
f 13/5/8 19/8/22 18/8/22 14/5/15
f 11/5/4 32/7/23 20/7/23 12/5/11
f 9/5/16 23/7/24 25/7/24 10/5/7
f 16/5/19 27/7/25 26/7/25 9/5/16
f 14/5/15 29/7/26 28/7/26 15/5/12
f 12/5/11 31/8/27 30/8/27 13/5/8
f 35/6/5 41/9/28 33/6/6
f 40/6/18 41/9/28 39/6/13
f 38/6/14 41/9/28 37/6/9
f 36/6/10 41/9/28 35/6/5
f 33/6/6 41/9/28 34/6/17
f 34/6/17 41/9/28 40/6/18
f 39/6/13 41/9/28 38/6/14
f 37/6/9 41/9/28 36/6/10
f 44/10/29 68/11/30 66/11/31 43/10/32
f 46/10/33 70/11/34 69/11/35 45/10/36
f 48/10/37 72/11/38 71/11/39 47/10/40
f 42/10/41 67/11/42 73/11/43 49/10/44
f 43/10/32 66/11/31 67/11/42 42/10/41
f 45/10/36 69/11/35 68/11/30 44/10/29
f 47/10/40 71/11/39 70/11/34 46/10/33
f 49/10/44 73/11/43 72/11/38 48/10/37
f 43/10/32 55/12/45 54/12/45 44/10/29
f 48/10/37 50/12/46 57/12/46 49/10/44
f 46/10/33 52/12/47 51/12/47 47/10/40
f 44/10/29 65/12/48 53/12/48 45/10/36
f 42/10/41 56/12/49 58/12/49 43/10/32
f 49/10/44 60/12/50 59/12/50 42/10/41
f 47/10/40 62/12/51 61/12/51 48/10/37
f 45/10/36 64/12/52 63/12/52 46/10/33
f 68/11/30 74/13/28 66/11/31
f 73/11/43 74/13/28 72/11/38
f 71/11/39 74/13/28 70/11/34
f 69/11/35 74/13/28 68/11/30
f 66/11/31 74/13/28 67/11/42
f 67/11/42 74/13/28 73/11/43
f 72/11/38 74/13/28 71/11/39
f 70/11/34 74/13/28 69/11/35
f 90/3/3 88/3/53 84/4/53 86/4/3
f 94/14/2 91/14/1 7/15/1 3/15/2
f 86/4/3 84/4/53 77/1/53 78/1/3
f 78/1/3 77/1/53 81/2/53 79/2/3
f 83/4/1 85/4/2 76/1/2 75/1/1
f 84/4/53 83/4/1 75/1/1 77/1/53
f 93/14/3 94/14/2 3/15/2 1/15/3
f 88/3/53 87/3/1 83/4/1 84/4/53
f 6/16/53 8/16/1 87/3/1 88/3/53
f 92/14/53 6/16/53 2/16/3 93/14/3
f 91/14/1 8/16/1 6/16/53 92/14/53
f 85/4/2 86/4/3 78/1/3 76/1/2
f 77/1/53 75/1/1 82/2/1 81/2/53
f 2/16/3 6/16/53 88/3/53 90/3/3
f 4/16/2 2/16/3 90/3/3 89/3/2
f 8/16/1 4/16/2 89/3/2 87/3/1
f 7/15/1 91/14/1 92/14/53 5/15/53
f 5/15/53 92/14/53 93/14/3 1/15/3
f 2/16/3 4/16/2 94/14/2 93/14/3
f 4/16/2 8/16/1 91/14/1 94/14/2
g Plane.001_Plane.001
v -0.081724 0.000000 0.100000
v 0.081724 -0.000000 0.100000
v -0.140574 1.486894 1.089059
v 0.140574 1.486894 1.089059
v -0.000000 -0.000000 0.100000
v -0.000000 1.510741 1.169399
v -0.000000 0.597271 0.215710
v -0.000000 1.159368 0.642462
v -0.317186 1.048506 0.506032
v -0.171903 1.168432 0.622654
v -0.273048 1.278801 0.752433
v -0.312566 0.426910 0.160915
v -0.208734 0.596255 0.220840
v -0.339064 0.783969 0.314566
v 0.339064 0.783969 0.314566
v 0.208734 0.596255 0.220840
v 0.312566 0.426910 0.160915
v 0.273048 1.278801 0.752433
v 0.171903 1.168432 0.622654
v 0.317186 1.048506 0.506032
v -0.000000 0.427167 0.159082
v -0.000000 0.783989 0.314495
v -0.000000 1.045012 0.514942
v 0.000000 1.277955 0.751339
vn -0.0047 0.1379 -0.9904
vn 0.0047 0.1379 -0.9904
vn 0.0500 0.8585 -0.5103
vn -0.0500 0.8585 -0.5103
vn -0.0000 0.1379 -0.9904
vn -0.0000 0.8596 -0.5110
vn -0.0000 0.3923 -0.9199
vn -0.0000 0.7178 -0.6962
vn 0.0295 0.6345 -0.7724
vn 0.0528 0.7156 -0.6965
vn 0.0480 0.8053 -0.5910
vn -0.0090 0.2329 -0.9725
vn -0.0114 0.3931 -0.9194
vn 0.0046 0.5417 -0.8405
vn -0.0046 0.5417 -0.8405
vn 0.0114 0.3931 -0.9194
vn 0.0090 0.2329 -0.9725
vn -0.0480 0.8053 -0.5910
vn -0.0528 0.7156 -0.6965
vn -0.0295 0.6345 -0.7724
vn -0.0000 0.2342 -0.9722
vn -0.0000 0.5279 -0.8493
vn -0.0000 0.6524 -0.7579
vn -0.0000 0.7997 -0.6004
vt 0.000000 0.438609
vt 0.000000 0.606744
vt 0.000000 0.000000
vt 0.000000 0.232705
vt 0.000000 0.328296
vt 0.000000 0.690721
vt 0.000000 0.774022
vt 0.000000 0.774697
vt 0.000000 0.963665
vt 0.000000 0.998811
s 1
f 108/17/67 103/18/62 117/18/76 116/17/75
f 99/19/58 115/20/74 111/20/70 96/19/55
f 95/19/54 106/20/65 115/20/74 99/19/58
f 101/21/60 116/17/75 109/17/68 110/21/69
f 102/22/61 118/23/77 112/24/71 113/22/72
f 98/25/57 112/24/71 118/23/77 100/26/59
f 115/20/74 101/21/60 110/21/69 111/20/70
f 106/20/65 107/21/66 101/21/60 115/20/74
f 116/17/75 101/21/60 107/21/66 108/17/67
f 116/17/75 117/18/76 114/18/73 109/17/68
f 117/18/76 102/22/61 113/22/72 114/18/73
f 103/18/62 104/22/63 102/22/61 117/18/76
f 97/25/56 100/26/59 118/23/77 105/24/64
f 118/23/77 102/22/61 104/22/63 105/24/64
g Plane.002_Plane.004
v 0.112108 0.000000 0.220381
v 0.216449 -0.000000 0.132828
v 0.734870 1.076717 1.038854
v 0.914347 1.076717 0.888255
v 0.164279 -0.000000 0.176604
v 0.875210 1.075114 1.023859
v 0.244395 0.491421 0.272083
v 0.533153 0.899141 0.616211
v 0.239691 0.831281 0.677689
v 0.410559 0.911598 0.692971
v 0.431997 0.978960 0.849649
v 0.007003 0.353297 0.394392
v 0.114665 0.490000 0.388087
v 0.095799 0.637017 0.534568
v 0.528696 0.637017 0.171325
v 0.381164 0.490000 0.164468
v 0.406069 0.353297 0.059536
v 0.780609 0.978960 0.557129
v 0.630035 0.911598 0.508809
v 0.644655 0.831281 0.337883
v 0.205270 0.353658 0.225455
v 0.312200 0.637044 0.352890
v 0.448060 0.826454 0.514801
v 0.605583 0.978474 0.702530
vn -0.6371 0.1786 -0.7498
vn -0.6278 0.1786 -0.7576
vn -0.1160 0.9645 -0.2371
vn -0.2134 0.9645 -0.1555
vn -0.6325 0.1786 -0.7537
vn -0.1650 0.9665 -0.1967
vn -0.5577 0.4973 -0.6646
vn -0.3334 0.8549 -0.3974
vn -0.3796 0.7717 -0.5103
vn -0.2842 0.8514 -0.4408
vn -0.1903 0.9278 -0.3208
vn -0.6221 0.3000 -0.7232
vn -0.5683 0.4984 -0.6546
vn -0.4719 0.6713 -0.5715
vn -0.4809 0.6713 -0.5640
vn -0.5460 0.4984 -0.6734
vn -0.6042 0.3000 -0.7382
vn -0.2829 0.9278 -0.2432
vn -0.3847 0.8514 -0.3564
vn -0.4366 0.7717 -0.4625
vn -0.6129 0.3015 -0.7304
vn -0.4852 0.6560 -0.5782
vn -0.3940 0.7901 -0.4695
vn -0.2447 0.9247 -0.2916
vt 0.000000 0.365507
vt 0.000000 0.505620
vt 0.000000 0.000000
vt 0.000000 0.193921
vt 0.000000 0.193921
vt 0.000000 0.273580
vt 0.000000 0.575601
vt 0.000000 0.645019
vt 0.000000 0.645581
vt 0.000000 0.803054
vt 0.000000 0.832343
s 1
f 132/27/91 127/28/86 141/28/100 140/27/99
f 123/29/82 139/30/98 135/30/94 120/29/79
f 119/29/78 130/31/89 139/30/98 123/29/82
f 125/32/84 140/27/99 133/27/92 134/32/93
f 126/33/85 142/34/101 136/35/95 137/33/96
f 122/36/81 136/35/95 142/34/101 124/37/83
f 139/30/98 125/32/84 134/32/93 135/30/94
f 130/31/89 131/32/90 125/32/84 139/30/98
f 140/27/99 125/32/84 131/32/90 132/27/91
f 140/27/99 141/28/100 138/28/97 133/27/92
f 141/28/100 126/33/85 137/33/96 138/28/97
f 127/28/86 128/33/87 126/33/85 141/28/100
f 121/36/80 124/37/83 142/34/101 129/35/88
f 142/34/101 126/33/85 128/33/87 129/35/88
g Plane.003_Plane.005
v 0.128275 0.000000 -0.100103
v 0.000282 -0.000000 -0.146688
v 0.525713 1.076717 -1.048666
v 0.305552 1.076717 -1.128799
v 0.064279 -0.000000 -0.123396
v 0.442557 1.075114 -1.162707
v 0.106908 0.491421 -0.240518
v 0.260553 0.899141 -0.662653
v 0.460524 0.831281 -0.439246
v 0.388326 0.911598 -0.594864
v 0.513293 0.978960 -0.691769
v 0.331526 0.353297 -0.096084
v 0.272235 0.490000 -0.186170
v 0.408524 0.637017 -0.243072
v -0.122502 0.637017 -0.436350
v -0.054674 0.490000 -0.305155
v -0.158000 0.353297 -0.274257
v 0.085657 0.978960 -0.847416
v 0.119099 0.911598 -0.692854
v -0.036238 0.831281 -0.620053
v 0.086089 0.353658 -0.183320
v 0.142986 0.637044 -0.339641
v 0.215275 0.826454 -0.538255
v 0.299092 0.978474 -0.768539
vn -0.3308 0.1786 0.9267
vn -0.3422 0.1786 0.9225
vn -0.1473 0.9645 0.2191
vn -0.0279 0.9645 0.2625
vn -0.3365 0.1786 0.9246
vn -0.0878 0.9665 0.2413
vn -0.2967 0.4973 0.8153
vn -0.1774 0.8549 0.4875
vn -0.2521 0.7717 0.5839
vn -0.2396 0.8514 0.4665
vn -0.1827 0.9278 0.3252
vn -0.3152 0.3000 0.9003
vn -0.2828 0.4984 0.8195
vn -0.2590 0.6713 0.6945
vn -0.2480 0.6713 0.6985
vn -0.3101 0.4984 0.8095
vn -0.3372 0.3000 0.8923
vn -0.0691 0.9278 0.3666
vn -0.1163 0.8514 0.5114
vn -0.1822 0.7717 0.6094
vn -0.3261 0.3015 0.8960
vn -0.2581 0.6560 0.7093
vn -0.2096 0.7901 0.5760
vn -0.1302 0.9247 0.3577
vt 0.000000 0.365507
vt 0.000000 0.505620
vt 0.000000 0.000000
vt 0.000000 0.193921
vt 0.000000 0.273580
vt 0.000000 0.575601
vt 0.000000 0.645019
vt 0.000000 0.645581
vt 0.000000 0.803054
vt 0.000000 0.832343
s 1
f 156/38/115 151/39/110 165/39/124 164/38/123
f 147/40/106 163/41/122 159/41/118 144/40/103
f 143/40/102 154/41/113 163/41/122 147/40/106
f 149/42/108 164/38/123 157/38/116 158/42/117
f 150/43/109 166/44/125 160/45/119 161/43/120
f 146/46/105 160/45/119 166/44/125 148/47/107
f 163/41/122 149/42/108 158/42/117 159/41/118
f 154/41/113 155/42/114 149/42/108 163/41/122
f 164/38/123 149/42/108 155/42/114 156/38/115
f 164/38/123 165/39/124 162/39/121 157/38/116
f 165/39/124 150/43/109 161/43/120 162/39/121
f 151/39/110 152/43/111 150/43/109 165/39/124
f 145/46/104 148/47/107 166/44/125 153/45/112
f 166/44/125 150/43/109 152/43/111 153/45/112
