# Blender 4.1.0
# www.blender.org
o Plane.005
v 0.116457 0.000000 0.079329
v 0.056680 0.000000 0.160658
v 0.179736 0.878275 0.188473
v 0.179736 0.878275 0.188473
v 0.167158 0.705526 0.135558
v 0.125480 0.705526 0.192263
v 0.130273 0.177596 0.068386
v 0.143877 0.354706 0.073412
v 0.156390 0.530844 0.095542
v 0.084074 0.530844 0.193930
v 0.059217 0.354706 0.188594
v 0.050359 0.177596 0.177110
vn 0.8055 -0.0262 0.5920
vn 0.7835 -0.2334 0.5759
vn 0.7886 -0.2051 0.5797
vn 0.8046 -0.0533 0.5914
vn 0.8014 -0.1042 0.5890
vn 0.7961 -0.1547 0.5851
vt 0.000000 0.111755
vt 0.000000 0.000000
vt 0.000000 0.447022
vt 0.000000 0.335266
vt 0.000000 0.558777
vt 0.000000 0.223511
s 1
f 12/1/4 2/2/1 1/2/1 7/1/4
f 6/3/3 10/4/6 9/4/6 5/3/3
f 4/5/2 6/3/3 5/3/3 3/5/2
f 10/4/6 11/6/5 8/6/5 9/4/6
f 11/6/5 12/1/4 7/1/4 8/6/5
o Plane.009
v -0.111542 0.000000 -0.057613
v 0.069091 0.000000 -0.057613
v -0.021226 1.571781 -0.264542
v -0.021226 1.571781 -0.264542
v -0.084197 1.262626 -0.190320
v 0.041746 1.262626 -0.190320
v -0.141966 0.317831 -0.065936
v -0.149138 0.634790 -0.090881
v -0.130487 0.950010 -0.132380
v 0.088035 0.950010 -0.132380
v 0.106686 0.634790 -0.090881
v 0.099514 0.317831 -0.065936
vn -0.0000 -0.0262 -0.9997
vn -0.0000 -0.2334 -0.9724
vn -0.0000 -0.2051 -0.9787
vn -0.0000 -0.0533 -0.9986
vn -0.0000 -0.1042 -0.9946
vn -0.0000 -0.1547 -0.9880
vt 0.000000 0.200000
vt 0.000000 0.000000
vt 0.000000 0.200000
vt 0.000000 0.800000
vt 0.000000 0.600000
vt 0.000000 1.000000
vt 0.000000 0.400000
s 1
f 24/7/10 14/8/7 13/8/7 19/9/10
f 18/10/9 22/11/12 21/11/12 17/10/9
f 16/12/8 18/10/9 17/10/9 15/12/8
f 22/11/12 23/13/11 20/13/11 21/11/12
f 23/13/11 24/7/10 19/9/10 20/13/11
