# Blender 4.1.0
# www.blender.org
o Down
v 0.086174 -0.199462 -0.000000
v 0.139064 0.006271 0.000000
v 0.067454 -0.003775 -0.000000
v 0.175351 -0.174419 -0.000000
v -0.000000 -0.015564 -0.000000
v 0.197683 -0.009500 -0.000000
v 0.210236 -0.101052 -0.000000
v -0.085946 -0.199462 -0.000000
v -0.138700 0.006271 0.000000
v -0.067283 -0.003775 -0.000000
v -0.174941 -0.174419 -0.000000
v -0.000000 -0.115654 -0.000000
v -0.197168 -0.009500 -0.000000
v -0.209690 -0.101052 -0.000000
vn -0.0000 -0.0000 -1.0000
vt 0.340013 0.936985
vt 0.169492 1.000000
vt 0.125549 0.111224
vt 0.295442 0.000000
vt 0.500652 0.863040
vt 0.500652 0.525698
vt 0.029889 0.901081
vt 0.000000 0.617266
vt 0.660872 0.936985
vt 0.705327 0.000000
vt 0.874778 0.111224
vt 0.830949 1.000000
vt 1.000000 0.617266
vt 0.970188 0.901081
s 0
f 3/1/1 2/2/1 4/3/1 1/4/1
f 5/5/1 3/1/1 1/4/1 12/6/1
f 4/3/1 2/2/1 6/7/1 7/8/1
f 10/9/1 8/10/1 11/11/1 9/12/1
f 5/5/1 12/6/1 8/10/1 10/9/1
f 11/11/1 14/13/1 13/14/1 9/12/1
o Top
v -0.052982 0.139289 -0.000218
v -0.160711 -0.033925 -0.000218
v -0.082872 -0.062234 -0.000218
v -0.133889 0.180425 -0.000218
v -0.000000 -0.070362 -0.000218
v -0.212971 0.067053 -0.000218
v -0.201297 0.150218 -0.000218
v 0.052982 0.139289 -0.000218
v 0.160711 -0.033926 -0.000218
v 0.082872 -0.062234 -0.000218
v 0.133889 0.180424 -0.000218
v 0.000000 0.034372 -0.000218
v 0.212971 0.067053 -0.000218
v 0.201297 0.150218 -0.000218
vn -0.0000 -0.0000 -1.0000
vt 0.694566 0.044541
vt 0.877313 0.199654
vt 0.757602 1.000000
vt 0.601937 0.815271
vt 0.500000 0.000000
vt 0.500000 0.320173
vt 1.000000 0.753006
vt 0.972599 0.954984
vt 0.305434 0.044541
vt 0.398063 0.815271
vt 0.242398 1.000000
vt 0.122687 0.199654
vt 0.027401 0.954984
vt 0.000000 0.753006
s 0
f 17/15/2 16/16/2 18/17/2 15/18/2
f 19/19/2 17/15/2 15/18/2 26/20/2
f 18/17/2 16/16/2 20/21/2 21/22/2
f 24/23/2 22/24/2 25/25/2 23/26/2
f 19/19/2 26/20/2 22/24/2 24/23/2
f 25/25/2 28/27/2 27/28/2 23/26/2
