# Blender 4.0.2
# www.blender.org
o small_rock
v -0.221984 -0.204117 0.209386
v -0.267436 0.195718 0.205337
v 0.255939 -0.194210 -0.208184
v 0.191999 0.196093 -0.267715
v 0.033645 0.245332 0.235053
v 0.238314 0.040983 0.234817
v 0.277985 0.238573 0.017016
v -0.248087 -0.238351 -0.046764
v -0.247175 -0.035563 -0.250287
v -0.047249 -0.254985 -0.296704
v 0.227013 -0.020672 0.225621
v -0.037424 -0.215014 0.224397
v 0.263149 -0.221037 -0.048720
v -0.232249 0.224371 0.006209
v 0.000949 0.207813 -0.278704
v -0.233741 0.048826 -0.236300
v -0.288831 -0.022399 0.257032
vn -0.9979 -0.0072 -0.0640
vn 0.9766 0.0579 -0.2069
vn 0.5601 0.5602 0.6103
vn 0.2014 -0.0439 -0.9785
vn -0.6847 -0.5147 -0.5159
vn 0.0009 -0.0092 1.0000
vn 0.4909 -0.6715 0.5551
vn 0.0494 -0.9975 0.0505
vn -0.5482 0.6791 -0.4882
vn -0.0366 0.9978 -0.0555
vn -0.1891 0.0785 -0.9788
vn 0.9858 -0.0713 0.1522
vt 0.028782 0.193736
vt 0.139512 0.153874
vt 0.276888 0.177450
vt 0.303081 0.300825
vt 0.204608 0.458236
vt 0.152916 0.469934
vt 0.018531 0.352603
vt 0.263755 0.847212
vt 0.018531 0.847212
vt 0.019826 0.666886
vt 0.295611 0.751831
vt 0.340143 0.348182
vt 0.462479 0.479817
vt 0.340143 0.500226
vt 0.975478 0.729803
vt 0.696508 0.653281
vt 0.722946 0.537288
vt 0.968056 0.537288
vt 0.018531 0.515959
vt 0.627629 0.314297
vt 0.501066 0.474178
vt 0.377817 0.162349
vt 0.513435 0.153874
vt 0.625053 0.199462
vt 0.667525 0.160347
vt 0.837600 0.153874
vt 0.664691 0.337660
vt 0.981469 0.312096
vt 0.869525 0.476999
vt 0.675772 0.435205
vt 0.952133 0.153874
vt 0.471818 0.854221
vt 0.658168 0.721244
vt 0.627698 0.868975
vt 0.659446 0.602727
vt 0.348050 0.868975
vt 0.340143 0.680020
vt 0.485212 0.537288
vt 0.820244 0.829877
vt 0.769737 0.813015
vt 0.162201 0.553021
vt 0.199174 0.564814
s 0
f 1/1/1 17/2/1 2/3/1 14/4/1 16/5/1 9/6/1 8/7/1
f 3/8/2 4/9/2 7/10/2 13/11/2
f 5/12/3 6/13/3 7/14/3
f 10/15/4 15/16/4 4/17/4 3/18/4
f 8/7/5 9/6/5 10/19/5
f 12/20/6 11/21/6 6/13/6 5/12/6 2/22/6 17/23/6 1/24/6
f 11/25/7 12/26/7 13/27/7
f 8/28/8 10/29/8 3/30/8 13/27/8 12/26/8 1/31/8
f 14/32/9 15/33/9 16/34/9
f 4/35/10 15/33/10 14/32/10 2/36/10 5/37/10 7/38/10
f 15/16/11 10/15/11 9/39/11 16/40/11
f 13/11/12 7/10/12 6/41/12 11/42/12
