# Blender 3.6.4
# www.blender.org
o ring
v 0.222575 0.000000 -1.118958
v 0.436596 0.000000 -1.054035
v 0.633839 0.000000 -0.948607
v 0.806724 0.000000 -0.806724
v 0.948606 0.000000 -0.633839
v 1.054035 0.000000 -0.436596
v 1.118958 0.000000 -0.222575
v 1.140880 0.000000 0.000000
v 1.118958 0.000000 0.222575
v 1.054035 0.000000 0.436596
v 0.948606 0.000000 0.633839
v 0.806724 0.000000 0.806724
v 0.633839 0.000000 0.948606
v 0.436596 0.000000 1.054035
v 0.222575 0.000000 1.118958
v 0.000000 0.000000 1.140880
v -0.222575 0.000000 1.118958
v -0.436596 0.000000 1.054035
v -0.633839 0.000000 0.948606
v -0.806724 0.000000 0.806724
v -0.948606 0.000000 0.633839
v -1.054035 0.000000 0.436596
v -1.118958 0.000000 0.222575
v -1.140880 0.000000 0.000000
v -1.118958 0.000000 -0.222575
v -1.054035 0.000000 -0.436596
v -0.948606 0.000000 -0.633839
v -0.806724 0.000000 -0.806724
v -0.633839 0.000000 -0.948607
v -0.436596 0.000000 -1.054035
v -0.222575 0.000000 -1.118958
v 0.000000 0.000000 -1.140880
v 0.000000 0.000000 -2.000000
v -0.390181 0.000000 -1.961571
v -0.765367 0.000000 -1.847759
v -1.111140 0.000000 -1.662939
v -1.414214 0.000000 -1.414214
v -1.662939 0.000000 -1.111140
v -1.847759 0.000000 -0.765367
v -1.961571 0.000000 -0.390181
v -2.000000 0.000000 0.000000
v -1.961571 0.000000 0.390181
v -1.847759 0.000000 0.765367
v -1.662939 0.000000 1.111140
v -1.414214 0.000000 1.414214
v -1.111140 0.000000 1.662939
v -0.765367 0.000000 1.847759
v -0.390181 0.000000 1.961571
v 0.000000 0.000000 2.000000
v 0.390181 0.000000 1.961571
v 0.765367 0.000000 1.847759
v 1.111140 0.000000 1.662939
v 1.414214 0.000000 1.414214
v 1.662939 0.000000 1.111140
v 1.847759 0.000000 0.765367
v 1.961571 0.000000 0.390181
v 2.000000 0.000000 0.000000
v 1.961571 0.000000 -0.390181
v 1.847759 0.000000 -0.765367
v 1.662939 0.000000 -1.111140
v 1.414214 0.000000 -1.414214
v 1.111140 0.000000 -1.662939
v 0.765367 0.000000 -1.847759
v 0.390181 0.000000 -1.961571
vn -0.0000 1.0000 -0.0000
vt 0.562500 0.000000
vt 0.593750 0.000000
vt 0.593750 1.000000
vt 0.562500 1.000000
vt 0.468750 0.000000
vt 0.500000 0.000000
vt 0.500000 1.000000
vt 0.468750 1.000000
vt 0.531250 0.000000
vt 0.531250 1.000000
vt 0.625000 0.000000
vt 0.656250 0.000000
vt 0.656250 1.000000
vt 0.625000 1.000000
vt 0.687500 0.000000
vt 0.718750 0.000000
vt 0.718750 1.000000
vt 0.687500 1.000000
vt 0.937500 0.000000
vt 0.968750 0.000000
vt 0.968750 1.000000
vt 0.937500 1.000000
vt 0.031250 0.000000
vt 0.062500 0.000000
vt 0.062500 1.000000
vt 0.031250 1.000000
vt 0.156250 0.000000
vt 0.187500 0.000000
vt 0.187500 1.000000
vt 0.156250 1.000000
vt 0.843750 0.000000
vt 0.875000 0.000000
vt 0.875000 1.000000
vt 0.843750 1.000000
vt 0.781250 0.000000
vt 0.812500 0.000000
vt 0.812500 1.000000
vt 0.781250 1.000000
vt 0.437500 0.000000
vt 0.437500 1.000000
vt 0.343750 0.000000
vt 0.375000 0.000000
vt 0.375000 1.000000
vt 0.343750 1.000000
vt 0.250000 0.000000
vt 0.281250 0.000000
vt 0.281250 1.000000
vt 0.250000 1.000000
vt 0.125000 0.000000
vt 0.125000 1.000000
vt 0.000000 0.000000
vt 0.000000 1.000000
vt 0.218750 0.000000
vt 0.218750 1.000000
vt 0.906250 0.000000
vt 0.906250 1.000000
vt 0.406250 0.000000
vt 0.406250 1.000000
vt 0.750000 0.000000
vt 0.750000 1.000000
vt 1.000000 0.000000
vt 1.000000 1.000000
vt 0.312500 0.000000
vt 0.312500 1.000000
vt 0.093750 0.000000
vt 0.093750 1.000000
s 0
f 59/1/1 60/2/1 5/3/1 6/4/1
f 56/5/1 57/6/1 8/7/1 9/8/1
f 57/6/1 58/9/1 7/10/1 8/7/1
f 61/11/1 62/12/1 3/13/1 4/14/1
f 63/15/1 64/16/1 1/17/1 2/18/1
f 39/19/1 40/20/1 25/21/1 26/22/1
f 42/23/1 43/24/1 22/25/1 23/26/1
f 46/27/1 47/28/1 18/29/1 19/30/1
f 36/31/1 37/32/1 28/33/1 29/34/1
f 34/35/1 35/36/1 30/37/1 31/38/1
f 55/39/1 56/5/1 9/8/1 10/40/1
f 52/41/1 53/42/1 12/43/1 13/44/1
f 49/45/1 50/46/1 15/47/1 16/48/1
f 45/49/1 46/27/1 19/30/1 20/50/1
f 41/51/1 42/23/1 23/26/1 24/52/1
f 47/28/1 48/53/1 17/54/1 18/29/1
f 62/12/1 63/15/1 2/18/1 3/13/1
f 38/55/1 39/19/1 26/22/1 27/56/1
f 54/57/1 55/39/1 10/40/1 11/58/1
f 58/9/1 59/1/1 6/4/1 7/10/1
f 35/36/1 36/31/1 29/34/1 30/37/1
f 64/16/1 33/59/1 32/60/1 1/17/1
f 60/2/1 61/11/1 4/14/1 5/3/1
f 40/20/1 41/61/1 24/62/1 25/21/1
f 37/32/1 38/55/1 27/56/1 28/33/1
f 51/63/1 52/41/1 13/44/1 14/64/1
f 48/53/1 49/45/1 16/48/1 17/54/1
f 43/24/1 44/65/1 21/66/1 22/25/1
f 44/65/1 45/49/1 20/50/1 21/66/1
f 53/42/1 54/57/1 11/58/1 12/43/1
f 50/46/1 51/63/1 14/64/1 15/47/1
f 33/59/1 34/35/1 31/38/1 32/60/1
