# Blender 3.6.4
# www.blender.org
o fireball_shell_mesh
v -0.000000 -0.011038 -0.770155
v -0.000000 -0.498858 -0.773261
v 0.132519 0.568856 -0.319929
v 0.237334 0.349142 -0.572976
v 0.294725 -0.011038 -0.711530
v 0.295914 -0.498858 -0.714400
v 0.244863 0.568856 -0.244863
v 0.438537 0.349142 -0.438537
v 0.544582 -0.011038 -0.544582
v 0.546778 -0.498858 -0.546778
v 0.319929 0.568856 -0.132519
v 0.572976 0.349142 -0.237334
v 0.711530 -0.011038 -0.294725
v 0.714400 -0.498858 -0.295914
v 0.346289 0.568856 0.000000
v 0.620184 0.349142 0.000000
v 0.770155 -0.011038 0.000000
v 0.773261 -0.498858 0.000000
v 0.319929 0.568856 0.132519
v 0.572976 0.349142 0.237334
v 0.711530 -0.011038 0.294726
v 0.714400 -0.498858 0.295914
v 0.244863 0.568856 0.244863
v 0.438537 0.349142 0.438537
v 0.544582 -0.011038 0.544582
v 0.546778 -0.498858 0.546778
v 0.132519 0.568856 0.319929
v 0.237334 0.349142 0.572976
v 0.294725 -0.011038 0.711530
v 0.295914 -0.498858 0.714400
v -0.000000 0.568856 0.346289
v -0.000000 0.349142 0.620184
v -0.000000 -0.011038 0.770155
v -0.000000 -0.498858 0.773261
v -0.000000 0.644976 -0.000000
v -0.132519 0.568856 0.319929
v -0.237335 0.349142 0.572976
v -0.294726 -0.011038 0.711530
v -0.295914 -0.498858 0.714400
v -0.244863 0.568856 0.244863
v -0.438537 0.349142 0.438536
v -0.544582 -0.011038 0.544581
v -0.546778 -0.498858 0.546778
v -0.319930 0.568856 0.132519
v -0.572976 0.349142 0.237334
v -0.711530 -0.011038 0.294725
v -0.714400 -0.498858 0.295914
v -0.066404 -4.355024 -0.160313
v -0.122698 -4.355024 -0.122698
v -0.160313 -4.355024 -0.066404
v -0.346289 0.568856 -0.000000
v -0.620184 0.349142 -0.000000
v -0.770155 -0.011038 -0.000000
v -0.773261 -0.498858 -0.000000
v -0.173521 -4.355024 -0.000000
v -0.160313 -4.355024 0.066404
v -0.122698 -4.355024 0.122698
v -0.319929 0.568856 -0.132519
v -0.572976 0.349142 -0.237335
v -0.711530 -0.011038 -0.294726
v -0.714400 -0.498858 -0.295915
v -0.066404 -4.355024 0.160313
v -0.000000 -4.355024 0.173521
v 0.066404 -4.355024 0.160313
v -0.244863 0.568856 -0.244864
v -0.438536 0.349142 -0.438537
v -0.544581 -0.011038 -0.544582
v -0.546778 -0.498858 -0.546778
v 0.122698 -4.355024 0.122698
v 0.160313 -4.355024 0.066404
v 0.173521 -4.355024 -0.000000
v -0.132519 0.568856 -0.319930
v -0.237334 0.349142 -0.572976
v -0.294725 -0.011038 -0.711530
v -0.295914 -0.498858 -0.714400
v 0.160313 -4.355024 -0.066404
v 0.122698 -4.355024 -0.122698
v 0.066404 -4.355024 -0.160313
v 0.000000 0.568856 -0.346289
v 0.000000 0.349142 -0.620184
v -0.000000 -4.355024 -0.173521
v -0.000000 -1.099995 0.645557
v -0.000000 -1.787381 0.519268
v -0.000000 -2.560056 0.396857
v -0.000000 -3.416558 0.280787
v -0.645557 -1.099995 -0.000000
v -0.519268 -1.787381 -0.000000
v -0.396857 -2.560056 -0.000000
v -0.280787 -3.416558 -0.000000
v -0.596417 -1.099995 0.247044
v -0.479741 -1.787381 0.198715
v -0.366648 -2.560056 0.151870
v -0.259413 -3.416558 0.107452
v -0.247044 -1.099995 -0.596417
v -0.198715 -1.787381 -0.479741
v -0.151870 -2.560056 -0.366648
v -0.107452 -3.416558 -0.259413
v -0.000000 -3.416558 -0.280787
v -0.000000 -2.560056 -0.396857
v -0.000000 -1.787381 -0.519268
v -0.000000 -1.099995 -0.645557
v 0.280787 -3.416558 -0.000000
v 0.396857 -2.560056 -0.000000
v 0.519268 -1.787381 0.000000
v 0.645557 -1.099995 0.000000
v -0.259413 -3.416558 -0.107453
v -0.366648 -2.560056 -0.151871
v -0.479741 -1.787381 -0.198716
v -0.596417 -1.099995 -0.247044
v 0.198546 -3.416558 -0.198546
v 0.280620 -2.560056 -0.280620
v 0.367178 -1.787381 -0.367178
v 0.456478 -1.099995 -0.456478
v 0.247044 -1.099995 0.596417
v 0.198715 -1.787381 0.479741
v 0.151870 -2.560056 0.366648
v 0.107452 -3.416558 0.259413
v 0.259413 -3.416558 0.107452
v 0.366648 -2.560056 0.151871
v 0.479741 -1.787381 0.198715
v 0.596417 -1.099995 0.247044
v 0.596417 -1.099995 -0.247044
v 0.479741 -1.787381 -0.198715
v 0.366648 -2.560056 -0.151871
v 0.259413 -3.416558 -0.107452
v -0.198546 -3.416558 -0.198546
v -0.280620 -2.560056 -0.280620
v -0.367178 -1.787381 -0.367178
v -0.456478 -1.099995 -0.456478
v 0.107452 -3.416558 -0.259413
v 0.151871 -2.560056 -0.366648
v 0.198715 -1.787381 -0.479741
v 0.247044 -1.099995 -0.596417
v -0.107453 -3.416558 0.259413
v -0.151871 -2.560056 0.366648
v -0.198715 -1.787381 0.479741
v -0.247044 -1.099995 0.596417
v -0.456478 -1.099995 0.456478
v -0.367178 -1.787381 0.367178
v -0.280620 -2.560056 0.280620
v -0.198546 -3.416558 0.198546
v 0.456478 -1.099995 0.456478
v 0.367178 -1.787381 0.367178
v 0.280620 -2.560056 0.280620
v 0.198546 -3.416558 0.198546
vn -0.0000 -0.1000 -0.9950
vn -0.0000 0.1946 -0.9809
vn 0.3754 0.1946 -0.9062
vn 0.3808 -0.1000 -0.9193
vn -0.0000 0.5865 -0.8099
vn -0.0000 0.8909 -0.4541
vn 0.1738 0.8909 -0.4196
vn 0.3099 0.5865 -0.7483
vn -0.0000 1.0000 -0.0000
vn 0.5727 0.5865 -0.5727
vn 0.6936 0.1946 -0.6936
vn 0.3211 0.8909 -0.3211
vn 0.7036 -0.1000 -0.7036
vn 0.4196 0.8909 -0.1738
vn 0.9062 0.1946 -0.3754
vn 0.9193 -0.1000 -0.3808
vn 0.7483 0.5865 -0.3099
vn 0.9809 0.1946 -0.0000
vn 0.9950 -0.1000 -0.0000
vn 0.4541 0.8909 -0.0000
vn 0.8099 0.5865 -0.0000
vn 0.7483 0.5865 0.3099
vn 0.9062 0.1946 0.3754
vn 0.4196 0.8909 0.1738
vn 0.9193 -0.1000 0.3808
vn 0.5727 0.5865 0.5727
vn 0.6936 0.1946 0.6936
vn 0.3211 0.8909 0.3211
vn 0.7036 -0.1000 0.7036
vn 0.3754 0.1946 0.9062
vn 0.3808 -0.1000 0.9193
vn 0.1738 0.8909 0.4196
vn 0.3099 0.5865 0.7483
vn -0.0000 0.1946 0.9809
vn -0.0000 -0.1000 0.9950
vn -0.0000 0.8909 0.4541
vn -0.0000 0.5865 0.8099
vn -0.3099 0.5865 0.7483
vn -0.3754 0.1946 0.9062
vn -0.1738 0.8909 0.4196
vn -0.3808 -0.1000 0.9192
vn -0.5727 0.5865 0.5727
vn -0.6936 0.1946 0.6936
vn -0.3211 0.8909 0.3211
vn -0.7036 -0.1000 0.7036
vn -0.9923 -0.1241 -0.0000
vn -0.9167 -0.1241 -0.3797
vn -0.9179 -0.1136 -0.3802
vn -0.9935 -0.1136 -0.0000
vn -0.7016 -0.1241 -0.7016
vn -0.7025 -0.1136 -0.7025
vn -0.9062 0.1946 0.3754
vn -0.9193 -0.1000 0.3808
vn -0.4196 0.8909 0.1738
vn -0.7483 0.5865 0.3099
vn 0.9167 -0.1241 -0.3797
vn 0.9923 -0.1241 -0.0000
vn 0.9935 -0.1136 -0.0000
vn 0.9179 -0.1136 -0.3802
vn -0.0000 -0.1241 0.9923
vn -0.3797 -0.1241 0.9167
vn -0.3802 -0.1136 0.9179
vn -0.0000 -0.1136 0.9935
vn -0.4541 0.8909 -0.0000
vn -0.8099 0.5865 -0.0000
vn 0.9167 -0.1241 0.3797
vn 0.9179 -0.1136 0.3802
vn -0.3797 -0.1241 -0.9167
vn -0.0000 -0.1241 -0.9923
vn -0.0000 -0.1136 -0.9935
vn -0.3802 -0.1136 -0.9179
vn -0.9809 0.1946 -0.0000
vn 0.3797 -0.1241 0.9167
vn 0.3802 -0.1136 0.9179
vn -0.9950 -0.1000 -0.0000
vn -0.7016 -0.1241 0.7016
vn -0.9167 -0.1241 0.3797
vn -0.9179 -0.1136 0.3802
vn -0.7025 -0.1136 0.7025
vn 0.3797 -0.1241 -0.9167
vn 0.3802 -0.1136 -0.9179
vn -0.7483 0.5865 -0.3099
vn -0.9062 0.1946 -0.3754
vn -0.4196 0.8909 -0.1738
vn -0.9193 -0.1000 -0.3808
vn -0.3211 0.8909 -0.3211
vn -0.6936 0.1946 -0.6936
vn -0.7036 -0.1000 -0.7036
vn -0.5727 0.5865 -0.5727
vn 0.7016 -0.1241 -0.7016
vn 0.7025 -0.1136 -0.7025
vn 0.7016 -0.1241 0.7016
vn 0.7025 -0.1136 0.7025
vn -0.3754 0.1946 -0.9062
vn -0.3808 -0.1000 -0.9193
vn -0.1738 0.8909 -0.4196
vn -0.3099 0.5865 -0.7483
vn 0.3754 -0.1946 0.9062
vn 0.6936 -0.1946 0.6936
vn 0.3772 -0.1689 0.9106
vn 0.6970 -0.1689 0.6970
vn 0.3786 -0.1456 0.9140
vn 0.6996 -0.1456 0.6996
vn -0.6936 -0.1946 0.6936
vn -0.3754 -0.1946 0.9062
vn -0.6970 -0.1689 0.6970
vn -0.3772 -0.1689 0.9106
vn -0.6996 -0.1456 0.6996
vn -0.3786 -0.1456 0.9140
vn 0.9062 -0.1946 0.3754
vn 0.9106 -0.1689 0.3772
vn 0.9140 -0.1456 0.3786
vn 0.6936 -0.1946 -0.6936
vn 0.3754 -0.1946 -0.9062
vn 0.6970 -0.1689 -0.6970
vn 0.3772 -0.1689 -0.9106
vn 0.6996 -0.1456 -0.6996
vn 0.3786 -0.1456 -0.9140
vn 0.9062 -0.1946 -0.3754
vn 0.9106 -0.1689 -0.3772
vn 0.9140 -0.1456 -0.3786
vn -0.3754 -0.1946 -0.9062
vn -0.6936 -0.1946 -0.6936
vn -0.3772 -0.1689 -0.9106
vn -0.6970 -0.1689 -0.6970
vn -0.3786 -0.1456 -0.9140
vn -0.6996 -0.1456 -0.6996
vn -0.9809 -0.1946 -0.0000
vn -0.9062 -0.1946 0.3754
vn -0.9856 -0.1689 -0.0000
vn -0.9106 -0.1689 0.3772
vn -0.9893 -0.1456 -0.0000
vn -0.9140 -0.1456 0.3786
vn -0.0000 -0.1946 -0.9809
vn -0.0000 -0.1689 -0.9856
vn -0.0000 -0.1456 -0.9893
vn -0.0000 -0.1946 0.9809
vn -0.0000 -0.1689 0.9856
vn -0.0000 -0.1456 0.9893
vn 0.9809 -0.1946 -0.0000
vn 0.9856 -0.1689 -0.0000
vn 0.9893 -0.1456 -0.0000
vn -0.9062 -0.1946 -0.3754
vn -0.9106 -0.1689 -0.3772
vn -0.9140 -0.1456 -0.3786
vt 0.750000 0.666667
vt 0.750000 0.794228
vt 0.687500 0.794228
vt 0.687500 0.666667
vt 0.750000 0.902369
vt 0.750000 0.974627
vt 0.687500 0.974627
vt 0.687500 0.902369
vt 0.718750 1.000000
vt 0.625000 0.902369
vt 0.625000 0.794228
vt 0.656250 1.000000
vt 0.625000 0.974627
vt 0.625000 0.666667
vt 0.593750 1.000000
vt 0.562500 0.974627
vt 0.562500 0.794228
vt 0.562500 0.666667
vt 0.562500 0.902369
vt 0.500000 0.794228
vt 0.500000 0.666667
vt 0.500000 0.974627
vt 0.500000 0.902369
vt 0.531250 1.000000
vt 0.437500 0.902369
vt 0.437500 0.794228
vt 0.468750 1.000000
vt 0.437500 0.974627
vt 0.437500 0.666667
vt 0.375000 0.902369
vt 0.375000 0.794228
vt 0.406250 1.000000
vt 0.375000 0.974627
vt 0.375000 0.666667
vt 0.312500 0.794228
vt 0.312500 0.666667
vt 0.312500 0.974627
vt 0.312500 0.902369
vt 0.343750 1.000000
vt 0.250000 0.794228
vt 0.250000 0.666667
vt 0.250000 0.974627
vt 0.250000 0.902369
vt 0.281250 1.000000
vt 0.187500 0.902369
vt 0.187500 0.794228
vt 0.218750 1.000000
vt 0.187500 0.974627
vt 0.187500 0.666667
vt 0.125000 0.902369
vt 0.125000 0.794228
vt 0.156250 1.000000
vt 0.125000 0.974627
vt 0.125000 0.666667
vt 1.000000 0.133333
vt 0.937500 0.133333
vt 0.937500 0.000000
vt 1.000000 0.000000
vt 0.875000 0.133333
vt 0.875000 0.000000
vt 0.062500 0.794228
vt 0.062500 0.666667
vt 0.062500 0.974627
vt 0.062500 0.902369
vt 0.562500 0.133333
vt 0.500000 0.133333
vt 0.500000 0.000000
vt 0.562500 0.000000
vt 0.250000 0.133333
vt 0.187500 0.133333
vt 0.187500 0.000000
vt 0.250000 0.000000
vt 0.093750 1.000000
vt 0.000000 0.974627
vt 0.000000 0.902369
vt 0.437500 0.133333
vt 0.437500 0.000000
vt 0.812500 0.133333
vt 0.750000 0.133333
vt 0.750000 0.000000
vt 0.812500 0.000000
vt 0.000000 0.794228
vt 0.031250 1.000000
vt 0.312500 0.133333
vt 0.312500 0.000000
vt 0.000000 0.666667
vt 0.125000 0.133333
vt 0.062500 0.133333
vt 0.062500 0.000000
vt 0.125000 0.000000
vt 0.687500 0.133333
vt 0.687500 0.000000
vt 1.000000 0.794228
vt 1.000000 0.902369
vt 0.937500 0.902369
vt 0.937500 0.794228
vt 1.000000 0.974627
vt 0.968750 1.000000
vt 0.937500 0.974627
vt 0.000000 0.133333
vt 0.000000 0.000000
vt 1.000000 0.666667
vt 0.937500 0.666667
vt 0.906250 1.000000
vt 0.875000 0.974627
vt 0.875000 0.794228
vt 0.875000 0.666667
vt 0.875000 0.902369
vt 0.625000 0.133333
vt 0.625000 0.000000
vt 0.375000 0.133333
vt 0.375000 0.000000
vt 0.812500 0.794228
vt 0.812500 0.666667
vt 0.812500 0.974627
vt 0.812500 0.902369
vt 0.843750 1.000000
vt 0.781250 1.000000
vt 0.312500 0.533333
vt 0.375000 0.533333
vt 0.312500 0.400000
vt 0.375000 0.400000
vt 0.312500 0.266667
vt 0.375000 0.266667
vt 0.125000 0.533333
vt 0.187500 0.533333
vt 0.125000 0.400000
vt 0.187500 0.400000
vt 0.125000 0.266667
vt 0.187500 0.266667
vt 0.437500 0.533333
vt 0.437500 0.400000
vt 0.437500 0.266667
vt 0.625000 0.533333
vt 0.687500 0.533333
vt 0.625000 0.400000
vt 0.687500 0.400000
vt 0.625000 0.266667
vt 0.687500 0.266667
vt 0.562500 0.533333
vt 0.562500 0.400000
vt 0.562500 0.266667
vt 0.812500 0.533333
vt 0.875000 0.533333
vt 0.812500 0.400000
vt 0.875000 0.400000
vt 0.812500 0.266667
vt 0.875000 0.266667
vt 0.000000 0.533333
vt 0.062500 0.533333
vt 0.000000 0.400000
vt 0.062500 0.400000
vt 0.000000 0.266667
vt 0.062500 0.266667
vt 0.750000 0.533333
vt 0.750000 0.400000
vt 0.750000 0.266667
vt 0.250000 0.533333
vt 0.250000 0.400000
vt 0.250000 0.266667
vt 0.500000 0.533333
vt 0.500000 0.400000
vt 0.500000 0.266667
vt 0.937500 0.533333
vt 0.937500 0.400000
vt 0.937500 0.266667
vt 1.000000 0.533333
vt 1.000000 0.400000
vt 1.000000 0.266667
s 1
f 2/1/1 1/2/2 5/3/3 6/4/4
f 80/5/5 79/6/6 3/7/7 4/8/8
f 1/2/2 80/5/5 4/8/8 5/3/3
f 79/6/6 35/9/9 3/7/7
f 5/3/3 4/8/8 8/10/10 9/11/11
f 3/7/7 35/12/9 7/13/12
f 6/4/4 5/3/3 9/11/11 10/14/13
f 4/8/8 3/7/7 7/13/12 8/10/10
f 7/13/12 35/15/9 11/16/14
f 10/14/13 9/11/11 13/17/15 14/18/16
f 8/10/10 7/13/12 11/16/14 12/19/17
f 9/11/11 8/10/10 12/19/17 13/17/15
f 14/18/16 13/17/15 17/20/18 18/21/19
f 12/19/17 11/16/14 15/22/20 16/23/21
f 13/17/15 12/19/17 16/23/21 17/20/18
f 11/16/14 35/24/9 15/22/20
f 17/20/18 16/23/21 20/25/22 21/26/23
f 15/22/20 35/27/9 19/28/24
f 18/21/19 17/20/18 21/26/23 22/29/25
f 16/23/21 15/22/20 19/28/24 20/25/22
f 21/26/23 20/25/22 24/30/26 25/31/27
f 19/28/24 35/32/9 23/33/28
f 22/29/25 21/26/23 25/31/27 26/34/29
f 20/25/22 19/28/24 23/33/28 24/30/26
f 26/34/29 25/31/27 29/35/30 30/36/31
f 24/30/26 23/33/28 27/37/32 28/38/33
f 25/31/27 24/30/26 28/38/33 29/35/30
f 23/33/28 35/39/9 27/37/32
f 30/36/31 29/35/30 33/40/34 34/41/35
f 28/38/33 27/37/32 31/42/36 32/43/37
f 29/35/30 28/38/33 32/43/37 33/40/34
f 27/37/32 35/44/9 31/42/36
f 33/40/34 32/43/37 37/45/38 38/46/39
f 31/42/36 35/47/9 36/48/40
f 34/41/35 33/40/34 38/46/39 39/49/41
f 32/43/37 31/42/36 36/48/40 37/45/38
f 38/46/39 37/45/38 41/50/42 42/51/43
f 36/48/40 35/52/9 40/53/44
f 39/49/41 38/46/39 42/51/43 43/54/45
f 37/45/38 36/48/40 40/53/44 41/50/42
f 89/55/46 106/56/47 50/57/48 55/58/49
f 106/56/47 126/59/50 49/60/51 50/57/48
f 43/54/45 42/51/43 46/61/52 47/62/53
f 41/50/42 40/53/44 44/63/54 45/64/55
f 125/65/56 102/66/57 71/67/58 76/68/59
f 85/69/60 134/70/61 62/71/62 63/72/63
f 42/51/43 41/50/42 45/64/55 46/61/52
f 40/53/44 35/73/9 44/63/54
f 45/64/55 44/63/54 51/74/64 52/75/65
f 102/66/57 118/76/66 70/77/67 71/67/58
f 97/78/68 98/79/69 81/80/70 48/81/71
f 46/61/52 45/64/55 52/75/65 53/82/72
f 44/63/54 35/83/9 51/74/64
f 117/84/73 85/69/60 63/72/63 64/85/74
f 47/62/53 46/61/52 53/82/72 54/86/75
f 141/87/76 93/88/77 56/89/78 57/90/79
f 98/79/69 130/91/80 78/92/81 81/80/70
f 53/93/72 52/94/65 59/95/82 60/96/83
f 51/97/64 35/98/9 58/99/84
f 93/88/77 89/100/46 55/101/49 56/89/78
f 54/102/75 53/93/72 60/96/83 61/103/85
f 52/94/65 51/97/64 58/99/84 59/95/82
f 58/99/84 35/104/9 65/105/86
f 126/59/50 97/78/68 48/81/71 49/60/51
f 61/103/85 60/96/83 67/106/87 68/107/88
f 59/95/82 58/99/84 65/105/86 66/108/89
f 110/109/90 125/65/56 76/68/59 77/110/91
f 130/91/80 110/109/90 77/110/91 78/92/81
f 60/96/83 59/95/82 66/108/89 67/106/87
f 118/76/66 145/111/92 69/112/93 70/77/67
f 68/107/88 67/106/87 74/113/94 75/114/95
f 66/108/89 65/105/86 72/115/96 73/116/97
f 134/70/61 141/87/76 57/90/79 62/71/62
f 145/111/92 117/84/73 64/85/74 69/112/93
f 67/106/87 66/108/89 73/116/97 74/113/94
f 65/105/86 35/117/9 72/115/96
f 74/113/94 73/116/97 80/5/5 1/2/2
f 72/115/96 35/118/9 79/6/6
f 75/114/95 74/113/94 1/2/2 2/1/1
f 73/116/97 72/115/96 79/6/6 80/5/5
f 26/34/29 30/36/31 114/119/98 142/120/99
f 142/120/99 114/119/98 115/121/100 143/122/101
f 143/122/101 115/121/100 116/123/102 144/124/103
f 144/124/103 116/123/102 117/84/73 145/111/92
f 39/49/41 43/54/45 138/125/104 137/126/105
f 137/126/105 138/125/104 139/127/106 136/128/107
f 136/128/107 139/127/106 140/129/108 135/130/109
f 135/130/109 140/129/108 141/87/76 134/70/61
f 22/29/25 26/34/29 142/120/99 121/131/110
f 121/131/110 142/120/99 143/122/101 120/132/111
f 120/132/111 143/122/101 144/124/103 119/133/112
f 119/133/112 144/124/103 145/111/92 118/76/66
f 6/4/4 10/14/13 113/134/113 133/135/114
f 133/135/114 113/134/113 112/136/115 132/137/116
f 132/137/116 112/136/115 111/138/117 131/139/118
f 131/139/118 111/138/117 110/109/90 130/91/80
f 10/14/13 14/18/16 122/140/119 113/134/113
f 113/134/113 122/140/119 123/141/120 112/136/115
f 112/136/115 123/141/120 124/142/121 111/138/117
f 111/138/117 124/142/121 125/65/56 110/109/90
f 68/107/88 75/114/95 94/143/122 129/144/123
f 129/144/123 94/143/122 95/145/124 128/146/125
f 128/146/125 95/145/124 96/147/126 127/148/127
f 127/148/127 96/147/126 97/78/68 126/59/50
f 47/62/53 54/86/75 86/149/128 90/150/129
f 90/150/129 86/149/128 87/151/130 91/152/131
f 91/152/131 87/151/130 88/153/132 92/154/133
f 92/154/133 88/153/132 89/100/46 93/88/77
f 2/1/1 6/4/4 133/135/114 101/155/134
f 101/155/134 133/135/114 132/137/116 100/156/135
f 100/156/135 132/137/116 131/139/118 99/157/136
f 99/157/136 131/139/118 130/91/80 98/79/69
f 43/54/45 47/62/53 90/150/129 138/125/104
f 138/125/104 90/150/129 91/152/131 139/127/106
f 139/127/106 91/152/131 92/154/133 140/129/108
f 140/129/108 92/154/133 93/88/77 141/87/76
f 30/36/31 34/41/35 82/158/137 114/119/98
f 114/119/98 82/158/137 83/159/138 115/121/100
f 115/121/100 83/159/138 84/160/139 116/123/102
f 116/123/102 84/160/139 85/69/60 117/84/73
f 75/114/95 2/1/1 101/155/134 94/143/122
f 94/143/122 101/155/134 100/156/135 95/145/124
f 95/145/124 100/156/135 99/157/136 96/147/126
f 96/147/126 99/157/136 98/79/69 97/78/68
f 18/21/19 22/29/25 121/131/110 105/161/140
f 105/161/140 121/131/110 120/132/111 104/162/141
f 104/162/141 120/132/111 119/133/112 103/163/142
f 103/163/142 119/133/112 118/76/66 102/66/57
f 34/41/35 39/49/41 137/126/105 82/158/137
f 82/158/137 137/126/105 136/128/107 83/159/138
f 83/159/138 136/128/107 135/130/109 84/160/139
f 84/160/139 135/130/109 134/70/61 85/69/60
f 14/18/16 18/21/19 105/161/140 122/140/119
f 122/140/119 105/161/140 104/162/141 123/141/120
f 123/141/120 104/162/141 103/163/142 124/142/121
f 124/142/121 103/163/142 102/66/57 125/65/56
f 61/103/85 68/107/88 129/144/123 109/164/143
f 109/164/143 129/144/123 128/146/125 108/165/144
f 108/165/144 128/146/125 127/148/127 107/166/145
f 107/166/145 127/148/127 126/59/50 106/56/47
f 54/102/75 61/103/85 109/164/143 86/167/128
f 86/167/128 109/164/143 108/165/144 87/168/130
f 87/168/130 108/165/144 107/166/145 88/169/132
f 88/169/132 107/166/145 106/56/47 89/55/46
